<svg xmlns="http://www.w3.org/2000/svg" viewBox="0 0 90.71 90.71"><defs><style>.cls-1,.cls-2{fill:none;}.cls-2{stroke:#000;stroke-linecap:round;stroke-miterlimit:10;stroke-width:6px;}</style></defs><g id="Ebene_2" data-name="Ebene 2"><g id="Ebene_2-2" data-name="Ebene 2"><polyline id="Hintergrund" class="cls-1" points="90.71 0 90.71 90.71 0 90.71 0 0"/></g><g id="Ebene_1-2" data-name="Ebene 1"><line class="cls-2" x1="47.26" y1="55.43" x2="71.93" y2="80.1"/><line class="cls-2" x1="47.26" y1="80.1" x2="71.93" y2="55.43"/><path class="cls-2" d="M64.78,45.84V18.28a5.67,5.67,0,0,0-5.67-5.67H41.79a5.67,5.67,0,0,0-4,1.66L24.44,27.61a5.66,5.66,0,0,0-1.66,4V67.28A5.67,5.67,0,0,0,28.45,73h9.2"/><line class="cls-2" x1="53.39" y1="27.21" x2="40.15" y2="27.21"/><line class="cls-2" x1="53.39" y1="41.32" x2="34.17" y2="41.32"/><line class="cls-2" x1="37.61" y1="55.43" x2="34.17" y2="55.43"/></g></g></svg>