<svg xmlns="http://www.w3.org/2000/svg" viewBox="0 0 90.71 90.71"><defs><style>.cls-1,.cls-2{fill:none;}.cls-2{stroke:#000;stroke-miterlimit:10;stroke-width:6px;}</style></defs><g id="Ebene_2" data-name="Ebene 2"><g id="Ebene_1-2" data-name="Ebene 1"><rect id="Hintergrund" class="cls-1" width="90.71" height="90.71"/><path class="cls-2" d="M76.68,36.75V74.83A5.67,5.67,0,0,1,71,80.5H61a5.67,5.67,0,0,1-5.67-5.67V56.32a10,10,0,0,0-10-10h0a10,10,0,0,0-10,10V74.83A5.67,5.67,0,0,1,29.7,80.5h-10A5.67,5.67,0,0,1,14,74.83V36.74a2.84,2.84,0,0,1,1-2.14l26.63-23a5.68,5.68,0,0,1,7.42,0l26.64,23A2.85,2.85,0,0,1,76.68,36.75Z"/></g></g></svg>