<svg xmlns="http://www.w3.org/2000/svg" viewBox="0 0 90.71 90.71">
    <defs>
        <!-- Define linear gradient -->
        <linearGradient id="strokeGradient" x1="0%" y1="0%" x2="100%" y2="100%">
            <stop offset="0%" style="stop-color:#c76b29;stop-opacity:1"/>
            <stop offset="100%" style="stop-color:#3d8fd1;stop-opacity:1"/>
        </linearGradient>
        <style>.cls-1,.cls-2,.cls-3{fill:none;}.cls-2,.cls-3{stroke:url(#strokeGradient);stroke-miterlimit:10;stroke-width:6px;}.cls-3{stroke-linecap:round;}</style>
    </defs>
    <g id="Ebene_2">
        <g id="Ebene_1-2">
            <rect id="Hintergrund" class="cls-1" width="90.71" height="90.71"/>
            <rect class="cls-2" x="17.81" y="17.81" width="55.09" height="55.09" rx="5.67"/>
            <rect class="cls-2" x="28.21" y="28.21" width="34.29" height="34.29" rx="2.83"/>
            <line class="cls-3" x1="72.9" y1="31.48" x2="84.11" y2="31.48"/>
            <line class="cls-3" x1="72.9" y1="44.17" x2="84.11" y2="44.17"/>
            <line class="cls-3" x1="72.9" y1="56.85" x2="84.11" y2="56.85"/>
            <line class="cls-3" x1="6.59" y1="33.86" x2="17.81" y2="33.86"/>
            <line class="cls-3" x1="6.59" y1="46.54" x2="17.81" y2="46.54"/>
            <line class="cls-3" x1="6.59" y1="59.23" x2="17.81" y2="59.23"/>
            <line class="cls-3" x1="31.48" y1="17.81" x2="31.48" y2="6.59"/>
            <line class="cls-3" x1="44.17" y1="17.81" x2="44.17" y2="6.59"/>
            <line class="cls-3" x1="56.85" y1="17.81" x2="56.85" y2="6.59"/>
            <line class="cls-3" x1="33.86" y1="84.11" x2="33.86" y2="72.9"/>
            <line class="cls-3" x1="46.54" y1="84.11" x2="46.54" y2="72.9"/>
            <line class="cls-3" x1="59.23" y1="84.11" x2="59.23" y2="72.9"/>
        </g>
    </g>
</svg>