<svg xmlns="http://www.w3.org/2000/svg" viewBox="0 0 90.71 90.71">
    <defs>
        <style>.cls-1,.cls-2,.cls-3{fill:none;}.cls-2,.cls-3{stroke:#000;stroke-linejoin:round;stroke-width:6px;}.cls-3{stroke-linecap:round;}</style>
    </defs>
    <g id="Ebene_2" >
        <g id="Ebene_2-2" >
            <polyline id="Hintergrund" class="cls-1" points="90.71 0 90.71 90.71 0 90.71 0 0"/>
        </g>
        <g id="Ebene_1-2" >
            <path class="cls-2" d="M29.35,23.85l-5,9.74H44.43l-5-9.74A5.66,5.66,0,0,0,29.35,23.85Z"/>
            <line class="cls-3" x1="24.35" y1="33.59" x2="24.35" y2="40.87"/>
            <line class="cls-3" x1="44.43" y1="33.59" x2="44.43" y2="40.87"/>
            <path class="cls-3" d="M47.21,71.31H61.33a5,5,0,0,0,5-5h0a5,5,0,0,0-5-5h-10a5,5,0,0,1-5-5h0a5,5,0,0,1,5-5H65.42"/>
            <path class="cls-3" d="M50.29,20.79H60.68a5.67,5.67,0,0,1,5.67,5.67V40.87"/>
            <path class="cls-3" d="M36.93,71.31H30a5.67,5.67,0,0,1-5.67-5.67V51.23"/>
        </g>
    </g>
</svg>