<svg xmlns="http://www.w3.org/2000/svg" viewBox="0 0 90.71 90.71">
    <defs>
        <style>.cls-1,.cls-2{fill:none;}.cls-2{stroke:#000;stroke-linecap:round;stroke-miterlimit:10;stroke-width:6px;}</style>
    </defs>
    <g id="Ebene_2">
        <g id="Ebene_1-2">
            <path class="cls-2" d="M20.37,60.76h28.8a0,0,0,0,1,0,0v15.6a0,0,0,0,1,0,0H26a5.67,5.67,0,0,1-5.67-5.67V60.76a0,0,0,0,1,0,0Z"/>
            <path class="cls-2" d="M49.17,60.76H78a0,0,0,0,1,0,0v9.93a5.67,5.67,0,0,1-5.67,5.67H49.17a0,0,0,0,1,0,0V60.76A0,0,0,0,1,49.17,60.76Z"/>
            <rect class="cls-2" x="34.77" y="45.16" width="28.8" height="15.6"/>
            <path class="cls-2" d="M54.84,29.56H72.3A5.67,5.67,0,0,1,78,35.23v9.93a0,0,0,0,1,0,0H49.17a0,0,0,0,1,0,0V35.23A5.67,5.67,0,0,1,54.84,29.56Z"/>
            <rect class="cls-2" x="10.32" y="18.87" width="28.8" height="15.6" rx="5.67" transform="translate(-3.31 3.5) rotate(-7.6)"/>
            <rect class="cls-2" x="63.57" y="45.16" width="14.4" height="15.6"/>
            <path class="cls-2" d="M26,45.16h8.73a0,0,0,0,1,0,0v15.6a0,0,0,0,1,0,0H20.37a0,0,0,0,1,0,0V50.83A5.67,5.67,0,0,1,26,45.16Z"/>
        </g>
    </g>
</svg>