<svg xmlns="http://www.w3.org/2000/svg" viewBox="0 0 90.71 90.71">
    <defs>
        <style>
            .cls-1,.cls-2{fill:none;}.cls-2{stroke:#000;stroke-linecap:round;stroke-linejoin:round;stroke-width:6px;}
        </style>
    </defs>
    <g id="Ebene_2" >
        <g id="Ebene_2-2" >
            <polyline id="Hintergrund" class="cls-1" points="0 90.71 0 0 90.71 0 90.71 90.71"/>
        </g>
        <g id="Ebene_1-2" >
            <rect class="cls-2" x="35.95" y="25.18" width="16.63" height="42.52"
                  transform="translate(45.8 -17.7) rotate(45)"/>
            <path class="cls-2" d="M35.11,67.35,18.65,75.93a2.87,2.87,0,0,1-3.87-3.88L23.36,55.6"/>
            <path class="cls-2"
                  d="M66.34,14.41h0a9.86,9.86,0,0,1,9.86,9.86V34.33a0,0,0,0,1,0,0H56.49a0,0,0,0,1,0,0V24.26a9.86,9.86,0,0,1,9.86-9.86Z"
                  transform="translate(36.66 -39.77) rotate(45)"/>
        </g>
    </g>
</svg>