<svg xmlns="http://www.w3.org/2000/svg" viewBox="0 0 90.71 90.71">
    <defs>
        <style>.cls-1,.cls-2{fill:none;}.cls-2{stroke:#000;stroke-linecap:round;stroke-miterlimit:10;stroke-width:6px;}</style>
    </defs>
    <g id="Ebene_2">
        <g id="Ebene_1-2">
            <path class="cls-2" d="M20.25,29.34h52.2A5.67,5.67,0,0,1,78.13,35V75.53a0,0,0,0,1,0,0H20.25a5.67,5.67,0,0,1-5.67-5.67V35a5.67,5.67,0,0,1,5.67-5.67Z" transform="translate(92.71 104.87) rotate(-180)"/>
            <path class="cls-2" d="M14.58,15.18H45.41a0,0,0,0,1,0,0v9.27a4.89,4.89,0,0,1-4.89,4.89h-21a4.89,4.89,0,0,1-4.89-4.89V15.18a0,0,0,0,1,0,0Z" transform="translate(59.99 44.52) rotate(-180)"/>
        </g>
    </g>
</svg>