<svg xmlns="http://www.w3.org/2000/svg" viewBox="0 0 90.71 90.71">
    <defs>
        <style>.cls-1,.cls-3,.cls-4{fill:none;}.cls-2,.cls-3,.cls-4{stroke:#000;stroke-miterlimit:10;}.cls-2,.cls-3{stroke-width:4.87px;}.cls-4{stroke-linecap:round;stroke-width:4px;}</style>
    </defs>
    <g id="Ebene_2">
        <g id="Ebene_1-2">
            <path class="cls-2"
                  d="M67.23,17.81H23.48a5.67,5.67,0,0,0-5.67,5.67V67.23a5.67,5.67,0,0,0,5.67,5.67H67.23a5.67,5.67,0,0,0,5.67-5.67V23.48A5.67,5.67,0,0,0,67.23,17.81ZM62.5,59.66a2.84,2.84,0,0,1-2.84,2.84H31.05a2.84,2.84,0,0,1-2.84-2.84V31.05a2.84,2.84,0,0,1,2.84-2.84H59.66a2.84,2.84,0,0,1,2.84,2.84Z"/>
            <rect class="cls-3" x="28.21" y="28.21" width="34.29" height="34.29" rx="2.84"/>
            <rect class="cls-3" x="28.21" y="28.21" width="34.29" height="34.29" rx="2.84"/>
            <line class="cls-4" x1="72.9" y1="31.48" x2="84.11" y2="31.48"/>
            <line class="cls-4" x1="72.9" y1="44.17" x2="84.11" y2="44.17"/>
            <line class="cls-4" x1="72.9" y1="56.85" x2="84.11" y2="56.85"/>
            <line class="cls-4" x1="6.59" y1="33.86" x2="17.81" y2="33.86"/>
            <line class="cls-4" x1="6.59" y1="46.54" x2="17.81" y2="46.54"/>
            <line class="cls-4" x1="6.59" y1="59.23" x2="17.81" y2="59.23"/>
            <line class="cls-4" x1="31.48" y1="17.81" x2="31.48" y2="6.59"/>
            <line class="cls-4" x1="44.17" y1="17.81" x2="44.17" y2="6.59"/>
            <line class="cls-4" x1="56.85" y1="17.81" x2="56.85" y2="6.59"/>
            <line class="cls-4" x1="33.86" y1="84.11" x2="33.86" y2="72.9"/>
            <line class="cls-4" x1="46.54" y1="84.11" x2="46.54" y2="72.9"/>
            <line class="cls-4" x1="59.23" y1="84.11" x2="59.23" y2="72.9"/>
        </g>
    </g>
</svg>