<svg xmlns="http://www.w3.org/2000/svg" viewBox="0 0 90.71 90.71">
    <defs>
        <style>.cls-1,.cls-2{fill:none;}.cls-2{stroke:#000;stroke-linecap:round;stroke-miterlimit:10;stroke-width:6px;}</style>
    </defs>
    <g id="Ebene_2">
        <g id="Ebene_1-2">
            <line class="cls-2" x1="22.73" y1="41.76" x2="8.7" y2="41.76"/>
            <line class="cls-2" x1="22.73" y1="56.65" x2="9" y2="58.64"/>
            <line class="cls-2" x1="24.17" y1="69.62" x2="14.66" y2="79.13"/>
            <line class="cls-2" x1="67.98" y1="41.76" x2="82.01" y2="41.76"/>
            <line class="cls-2" x1="67.98" y1="56.65" x2="81.71" y2="58.64"/>
            <line class="cls-2" x1="66.43" y1="69.51" x2="76.05" y2="79.13"/>
            <line class="cls-2" x1="57.3" y1="18.94" x2="64.62" y2="11.61"/>
            <line class="cls-2" x1="33.84" y1="19.36" x2="26.09" y2="11.61"/>
            <path class="cls-2" d="M59.43,28v5.64H31.28V28a14.08,14.08,0,0,1,28.15,0Z"/>
            <line class="cls-2" x1="45.35" y1="35.52" x2="45.35" y2="54.56"/>
            <path class="cls-2" d="M68,39.32V61.11c0,12.27-9.54,22.71-21.8,23.15A22.62,22.62,0,0,1,22.73,61.65V39.32a5.67,5.67,0,0,1,5.67-5.67H62.31A5.67,5.67,0,0,1,68,39.32Z"/>
        </g>
    </g>
</svg>