<svg xmlns="http://www.w3.org/2000/svg" viewBox="0 0 90.71 90.71"><defs><style>.cls-1,.cls-2{fill:none;}.cls-2{stroke:#000;stroke-linejoin:round;stroke-width:6px;}</style></defs><g id="Ebene_2" ><g id="Ebene_2-2" ><rect id="Hintergrund" class="cls-1" width="90.71" height="90.71"/><rect id="Hintergrund-2" data-name="Hintergrund" class="cls-1" width="90.71" height="90.71"/></g><g id="Ebene_1-2" ><path class="cls-2" d="M79.3,51.65a34.35,34.35,0,0,0,0-12.3L72.68,37.9a28.07,28.07,0,0,0-2.63-6.34l3.66-5.72a34.75,34.75,0,0,0-8.7-8.7L59.3,20.8A28.07,28.07,0,0,0,53,18.17l-1.45-6.62a34.81,34.81,0,0,0-12.3,0l-1.45,6.62a27.65,27.65,0,0,0-6.34,2.64L25.7,17.14a34.75,34.75,0,0,0-8.7,8.7l3.67,5.72A27.19,27.19,0,0,0,18,37.9l-6.63,1.45a34.81,34.81,0,0,0,0,12.3L18,53.1a26.94,26.94,0,0,0,2.63,6.33L17,65.15a34.58,34.58,0,0,0,8.7,8.7l5.71-3.66a27.73,27.73,0,0,0,6.35,2.64l1.45,6.62a34.81,34.81,0,0,0,12.3,0L53,72.83a27.65,27.65,0,0,0,6.34-2.64L65,73.85a34.58,34.58,0,0,0,8.7-8.7l-3.66-5.71a28.07,28.07,0,0,0,2.63-6.34ZM58.61,45.51a13.18,13.18,0,0,1-3.88,9.36h0a13.21,13.21,0,0,1-9.35,3.87h0A13.23,13.23,0,0,1,36,54.88h0a13.25,13.25,0,0,1,0-18.74h0a13.23,13.23,0,0,1,9.36-3.87h0a13.21,13.21,0,0,1,9.35,3.87h0a13.18,13.18,0,0,1,3.88,9.36h0"/></g></g></svg>