<svg xmlns="http://www.w3.org/2000/svg" viewBox="0 0 90.71 90.71">
    <defs>
        <style>.cls-1,.cls-2{fill:none;}.cls-2{stroke:#000;stroke-linecap:round;stroke-linejoin:round;stroke-width:6px;}</style>
    </defs>
    <g id="Ebene_2">
        <g id="Ebene_1-2">
            <rect class="cls-2" x="11.41" y="11.41" width="67.89" height="67.89" rx="12"/>
            <path d="M36.6,25.91V64.79H25.91V25.91H36.6m2.51-6H23.41a3.5,3.5,0,0,0-3.5,3.5V67.3a3.5,3.5,0,0,0,3.5,3.49h15.7A3.49,3.49,0,0,0,42.6,67.3V23.41a3.5,3.5,0,0,0-3.49-3.5Z"/>
            <path d="M64.79,25.91V64.79H54.1V25.91H64.79m2.51-6H51.6a3.5,3.5,0,0,0-3.5,3.5V67.3a3.5,3.5,0,0,0,3.5,3.49H67.3a3.49,3.49,0,0,0,3.49-3.49V23.41a3.5,3.5,0,0,0-3.49-3.5Z"/>
        </g>
    </g>
</svg>