<?xml version="1.0" ?><!-- Uploaded to: SVG Repo, www.svgrepo.com, Generator: SVG Repo Mixer Tools -->
<svg width="800px" height="800px" viewBox="0 0 28 28" fill="none" xmlns="http://www.w3.org/2000/svg"><path d="M7.8 13C7.35817 13 7 13.3582 7 13.8V14.2C7 14.6418 7.35817 15 7.8 15H20.2C20.6418 15 21 14.6418 21 14.2V13.8C21 13.3582 20.6418 13 20.2 13H7.8Z" fill="#000000"/><path clip-rule="evenodd" d="M14 1C6.82031 1 1 6.82031 1 14C1 21.1797 6.82031 27 14 27C21.1797 27 27 21.1797 27 14C27 6.82031 21.1797 1 14 1ZM3 14C3 7.9248 7.92578 3 14 3C20.0742 3 25 7.9248 25 14C25 20.0752 20.0742 25 14 25C7.92578 25 3 20.0752 3 14Z" fill="#000000" fill-rule="evenodd"/></svg>