<?xml version="1.0" standalone="no"?>
<!DOCTYPE svg PUBLIC "-//W3C//DTD SVG 20010904//EN"
 "http://www.w3.org/TR/2001/REC-SVG-20010904/DTD/svg10.dtd">
<svg version="1.0" xmlns="http://www.w3.org/2000/svg"
 width="700.000000pt" height="700.000000pt" viewBox="0 0 700.000000 700.000000"
 preserveAspectRatio="xMidYMid meet">
<metadata>
Created by potrace 1.14, written by Peter Selinger 2001-2017
</metadata>
<g transform="translate(0.000000,700.000000) scale(0.100000,-0.100000)"
fill="#000000" stroke="none">
<path d="M2393 6719 c-95 -17 -173 -90 -190 -178 -3 -14 -6 -174 -6 -354 l-2
-329 -245 -3 c-191 -2 -258 -6 -305 -19 -237 -66 -407 -233 -476 -468 -20 -67
-22 -98 -24 -406 -2 -183 -4 -335 -7 -337 -2 -2 -159 -5 -348 -7 -331 -3 -347
-4 -385 -25 -144 -77 -169 -264 -50 -376 61 -57 84 -60 447 -61 179 -1 330 -4
334 -8 5 -6 9 -351 5 -480 l-1 -28 -326 0 c-204 0 -341 -4 -369 -11 -24 -6
-62 -26 -84 -45 -131 -113 -101 -313 58 -386 42 -19 65 -20 383 -20 l338 0 1
-22 c3 -74 1 -487 -3 -491 -2 -2 -156 -5 -341 -5 -371 -1 -381 -2 -446 -63
-75 -70 -93 -178 -46 -271 14 -28 39 -62 56 -75 64 -50 90 -53 442 -53 208 0
330 -4 334 -10 3 -6 7 -117 8 -247 2 -130 5 -245 8 -256 43 -157 93 -249 188
-344 95 -95 184 -144 344 -188 11 -3 169 -7 350 -9 182 -2 333 -3 338 -3 4 -1
7 -148 7 -328 0 -189 4 -343 10 -364 26 -93 103 -158 198 -166 104 -10 185 34
233 127 23 44 23 50 23 382 1 185 4 340 8 344 6 5 338 9 485 5 l22 -1 3 -353
3 -352 27 -42 c49 -74 120 -113 207 -113 89 1 162 51 203 140 20 43 21 61 21
382 l0 338 26 1 c29 1 446 1 473 0 16 -1 17 -30 20 -353 l3 -353 27 -41 c34
-53 80 -91 126 -104 121 -33 235 18 285 129 18 41 19 68 20 383 0 336 0 338
21 339 12 0 122 1 246 3 211 2 230 4 310 29 227 71 391 240 456 472 14 49 17
116 20 375 1 173 3 325 3 337 l1 22 348 3 c336 3 348 4 389 25 140 75 165 262
49 375 -60 58 -84 61 -448 62 -179 1 -330 4 -334 8 -5 6 -9 395 -5 491 1 16
24 17 339 17 332 0 338 1 387 24 60 27 110 81 124 133 35 123 -15 234 -129
285 -41 19 -65 21 -384 22 l-339 1 1 245 c0 135 1 251 1 258 1 9 74 12 332 12
223 0 344 4 370 12 22 6 58 27 80 47 136 116 89 340 -82 392 -20 6 -169 11
-369 11 l-335 1 -1 246 c0 238 -1 249 -27 331 -35 113 -88 200 -168 280 -94
94 -186 144 -344 187 -11 3 -168 7 -350 9 -181 1 -333 3 -337 3 -4 1 -8 157
-10 349 -3 336 -4 348 -25 388 -58 108 -186 155 -294 107 -57 -26 -90 -57
-119 -113 -23 -44 -24 -50 -24 -382 -1 -185 -5 -340 -9 -344 -5 -5 -428 -10
-494 -5 -9 1 -13 90 -15 354 l-3 352 -27 41 c-36 55 -81 91 -131 105 -119 33
-228 -18 -279 -130 -19 -42 -21 -65 -21 -383 l0 -338 -26 -1 c-33 -1 -450 -1
-473 0 -17 1 -18 24 -18 335 0 370 -3 392 -63 454 -56 59 -129 84 -204 71z
m2863 -1338 c45 -12 106 -71 126 -119 12 -31 18 -3402 6 -3486 -9 -60 -47
-111 -109 -145 l-43 -25 -1731 0 c-1889 0 -1767 -4 -1833 58 -71 67 -66 -91
-65 1835 0 1943 -6 1776 74 1845 24 20 58 38 78 42 20 3 39 6 44 7 4 1 773 2
1710 1 1260 -1 1713 -4 1743 -13z"/>
<path d="M2327 5048 c-112 -14 -240 -96 -306 -194 -16 -25 -40 -76 -52 -112
l-23 -67 0 -1165 c-1 -1031 1 -1172 15 -1225 23 -88 55 -143 121 -207 62 -61
100 -84 188 -114 52 -17 117 -18 1220 -18 938 0 1176 3 1220 13 177 43 314
194 337 372 5 35 8 577 8 1204 -1 1222 1 1162 -53 1275 -51 105 -185 210 -302
236 -44 10 -2295 12 -2373 2z m2263 -1548 l0 -1090 -1090 0 -1090 0 0 1090 0
1090 1090 0 1090 0 0 -1090z"/>
</g>
</svg>
